<?xml version="1.0" encoding="UTF-8" standalone="no"?><!-- Generator: Gravit.io --><svg xmlns="http://www.w3.org/2000/svg" xmlns:xlink="http://www.w3.org/1999/xlink" style="isolation:isolate" viewBox="0 0 512 512" width="512pt" height="512pt"><defs><clipPath id="_clipPath_AGExre85PFlhJpexnI2zLlCppRUq7Ffm"><rect width="512" height="512"/></clipPath></defs><g clip-path="url(#_clipPath_AGExre85PFlhJpexnI2zLlCppRUq7Ffm)"><g><g><path d=" M 375.439 212.867 C 375.439 218.905 377.828 224.811 382.074 229.19 L 129.933 229.19 C 134.179 224.811 136.568 218.905 136.568 212.867 C 136.568 209.218 135.705 205.767 134.179 202.649 L 134.245 202.649 L 377.761 202.649 L 377.828 202.649 C 376.301 205.767 375.439 209.218 375.439 212.867 Z " fill="rgb(189,213,234)"/></g><g><path d=" M 455.062 169.472 L 455.062 262.367 C 455.062 269.665 449.091 275.637 441.792 275.637 C 434.493 275.637 428.521 269.665 428.521 262.367 L 428.521 212.867 L 428.521 169.472 C 428.521 162.173 434.493 156.202 441.792 156.202 C 445.441 156.202 448.759 157.661 451.148 160.117 C 453.603 162.505 455.062 165.823 455.062 169.472 Z " fill="rgb(87,115,153)"/></g><g><path d=" M 83.485 212.867 L 83.485 262.367 C 83.485 269.665 77.514 275.637 70.215 275.637 C 62.916 275.637 56.944 269.665 56.944 262.367 L 56.944 169.472 C 56.944 162.173 62.916 156.202 70.215 156.202 C 73.864 156.202 77.182 157.661 79.571 160.117 C 82.026 162.505 83.485 165.823 83.485 169.472 L 83.485 212.867 Z " fill="rgb(87,115,153)"/></g><g><path d=" M 348.234 315.582 C 348.699 317.705 348.898 319.895 348.898 322.084 C 348.898 339.137 336.025 353.204 319.503 355.062 L 319.503 355.261 L 256.003 355.261 L 256.003 288.908 C 256.003 270.594 270.866 255.731 289.18 255.731 C 307.493 255.731 322.356 270.594 322.356 288.908 C 322.356 289.107 322.29 289.372 322.29 289.571 C 335.362 292.225 345.646 302.51 348.234 315.582 Z " fill="rgb(189,213,234)"/></g><g><path d=" M 192.503 302.377 C 190.646 298.264 189.65 293.685 189.65 288.908 C 189.65 270.594 204.513 255.731 222.827 255.731 C 241.14 255.731 256.003 270.594 256.003 288.908 L 256.003 355.261 L 176.38 355.261 L 169.744 355.261 C 165.564 349.687 163.109 342.853 163.109 335.355 C 163.109 327.923 165.564 321.023 169.744 315.449 C 175.053 308.349 183.214 303.439 192.503 302.377 Z " fill="rgb(189,213,234)"/></g><g><path d=" M 382.074 229.19 C 377.828 224.811 375.439 218.905 375.439 212.867 C 375.439 209.218 376.301 205.767 377.828 202.649 C 381.543 194.753 389.572 189.378 398.928 189.378 L 405.032 189.378 C 418.037 189.378 428.521 199.862 428.521 212.867 L 428.521 262.367 L 428.521 288.908 C 428.521 325.535 398.795 355.261 362.168 355.261 L 355.533 355.261 L 335.627 355.261 L 319.503 355.261 L 319.503 355.062 C 336.025 353.204 348.898 339.137 348.898 322.084 C 348.898 319.895 348.699 317.705 348.234 315.582 L 348.898 315.449 L 358.386 315.449 C 375.571 315.449 389.904 302.377 391.43 285.258 L 395.345 242.461 L 382.34 229.455 C 382.273 229.389 382.14 229.256 382.074 229.19 Z " fill="rgb(247,247,255)"/></g><g><path d=" M 129.933 229.19 C 129.866 229.256 129.733 229.389 129.667 229.455 L 116.662 242.461 L 120.577 285.258 C 122.103 302.377 136.435 315.449 153.621 315.449 L 169.744 315.449 C 165.564 321.023 163.109 327.923 163.109 335.355 C 163.109 342.853 165.564 349.687 169.744 355.261 L 156.474 355.261 L 149.838 355.261 C 113.212 355.261 83.485 325.535 83.485 288.908 L 83.485 262.367 L 83.485 212.867 C 83.485 199.862 93.969 189.378 106.974 189.378 L 113.079 189.378 C 122.435 189.378 130.463 194.753 134.179 202.649 C 135.705 205.767 136.568 209.218 136.568 212.867 C 136.568 218.905 134.179 224.811 129.933 229.19 Z " fill="rgb(247,247,255)"/></g></g><g><path d=" M 441.792 149.566 C 430.817 149.566 421.886 158.498 421.886 169.472 L 421.886 187.899 C 417.082 184.647 411.289 182.743 405.059 182.743 L 398.895 182.743 C 388.53 182.743 379.367 188.011 373.952 196.014 L 138.048 196.014 C 132.633 188.011 123.476 182.743 113.105 182.743 L 106.948 182.743 C 100.717 182.743 94.925 184.647 90.121 187.899 L 90.121 169.472 C 90.121 158.498 81.19 149.566 70.215 149.566 C 59.24 149.566 50.309 158.498 50.309 169.472 L 50.309 262.367 C 50.309 273.341 59.24 282.272 70.215 282.272 C 72.55 282.272 74.767 281.795 76.85 281.052 L 76.85 288.908 C 76.85 329.151 109.589 361.89 149.832 361.896 L 143.203 361.896 C 124.91 361.896 387.097 361.896 368.803 361.896 L 362.168 361.896 C 402.411 361.896 435.157 329.151 435.157 288.908 L 435.157 281.052 C 437.24 281.795 439.456 282.272 441.792 282.272 C 452.767 282.272 461.698 273.341 461.698 262.367 L 461.698 169.472 C 461.698 158.498 452.767 149.566 441.792 149.566 Z  M 328.746 284.469 C 326.53 264.596 309.63 249.096 289.18 249.096 C 275.339 249.096 263.143 256.202 256.003 266.945 C 248.864 256.196 236.668 249.096 222.827 249.096 C 200.871 249.096 183.015 266.952 183.015 288.908 C 183.015 291.867 183.367 294.747 183.984 297.527 C 177.176 299.723 171.197 303.645 166.586 308.814 L 153.594 308.814 C 139.779 308.814 128.413 298.436 127.166 284.674 L 123.556 244.956 L 132.68 235.825 L 379.327 235.825 L 388.457 244.956 L 384.848 284.674 C 383.594 298.436 372.227 308.814 358.413 308.814 L 353.171 308.814 C 349.156 297.567 340.258 288.457 328.746 284.469 Z  M 173.374 348.626 C 171.032 344.605 169.744 340.093 169.744 335.355 C 169.744 323.299 177.8 313.034 189.04 309.862 C 196.073 321.162 208.568 328.72 222.827 328.72 L 222.827 315.449 C 208.189 315.449 196.286 303.545 196.286 288.908 C 196.286 274.27 208.189 262.367 222.827 262.367 C 237.464 262.367 249.368 274.27 249.368 288.908 L 249.368 348.626 L 176.38 348.626 L 173.374 348.626 Z  M 262.639 288.908 C 262.639 274.27 274.542 262.367 289.18 262.367 C 303.817 262.367 315.721 274.27 315.761 288.277 L 315.495 294.966 L 320.983 296.074 C 333.311 298.556 342.262 309.497 342.262 322.084 C 342.262 335.614 332.15 346.947 318.733 348.46 L 318.747 348.626 L 262.639 348.626 L 262.639 288.908 Z  M 369.162 209.284 C 369.022 210.465 368.803 211.62 368.803 212.841 C 368.803 216.211 369.474 219.456 370.529 222.555 L 141.478 222.555 C 142.54 219.456 143.203 216.211 143.203 212.841 C 143.203 211.626 142.984 210.465 142.845 209.284 L 369.162 209.284 Z  M 70.215 269.002 C 66.559 269.002 63.579 266.023 63.579 262.367 L 63.579 169.472 C 63.579 165.816 66.559 162.837 70.215 162.837 C 73.871 162.837 76.85 165.816 76.85 169.472 L 76.85 212.841 L 76.85 262.367 C 76.85 266.023 73.871 269.002 70.215 269.002 Z  M 90.121 288.908 L 90.121 262.367 L 90.121 212.841 C 90.121 203.565 97.672 196.014 106.948 196.014 L 113.112 196.014 C 122.382 196.014 129.933 203.565 129.933 212.841 C 129.933 217.333 128.181 221.559 125.002 224.738 L 109.774 239.966 L 113.941 285.875 C 115.826 306.518 132.865 322.084 153.594 322.084 L 158.829 322.084 C 157.356 326.258 156.474 330.704 156.474 335.355 C 156.474 339.947 157.29 344.405 158.789 348.626 L 149.838 348.626 C 116.914 348.626 90.121 321.832 90.121 288.908 Z  M 163.102 361.896 L 176.38 361.896 L 335.627 361.896 L 348.891 361.896 L 163.102 361.896 Z  M 421.886 288.908 C 421.886 321.832 395.093 348.626 362.168 348.626 L 362.162 348.626 L 345.427 348.626 C 351.737 341.552 355.533 332.23 355.533 322.084 L 358.413 322.084 C 379.141 322.084 396.181 306.518 398.065 285.875 L 402.232 239.966 L 387.004 224.738 C 383.826 221.559 382.074 217.333 382.074 212.841 C 382.074 203.565 389.625 196.014 398.901 196.014 L 405.065 196.014 C 414.335 196.014 421.886 203.565 421.886 212.841 L 421.886 262.367 L 421.886 288.908 Z  M 448.427 262.367 C 448.427 266.023 445.448 269.002 441.792 269.002 C 438.136 269.002 435.157 266.023 435.157 262.367 L 435.157 212.841 L 435.157 169.472 C 435.157 165.816 438.136 162.837 441.792 162.837 C 445.448 162.837 448.427 165.816 448.427 169.472 L 448.427 262.367 Z " fill="rgb(73,88,103)"/></g><g><path d=" M 46.447 315.986 L 36.693 345.248 C 34.57 351.552 28.731 355.798 22.029 355.798 C 17.783 355.798 13.934 354.073 11.147 351.286 C 8.36 348.499 6.635 344.651 6.635 340.404 C 6.635 333.703 10.882 327.864 17.185 325.74 L 46.447 315.986 Z " fill="rgb(189,213,234)"/></g><path d=" M 0 340.371 C 0 352.534 9.9 362.434 22.062 362.434 C 31.571 362.434 39.984 356.369 42.99 347.352 L 56.944 305.496 L 15.089 319.45 C 6.065 322.456 0 330.863 0 340.371 Z  M 19.282 332.037 L 35.957 326.477 L 30.396 343.151 C 29.195 346.748 25.851 349.163 22.062 349.163 C 17.212 349.163 13.271 345.222 13.271 340.371 C 13.271 336.582 15.686 333.238 19.282 332.037 Z " fill="rgb(73,88,103)"/><path d=" M 505.365 338.48 C 505.365 342.727 503.64 346.575 500.853 349.362 C 498.066 352.149 494.217 353.874 489.971 353.874 C 483.269 353.874 477.43 349.627 475.307 343.324 L 470.43 328.693 L 465.553 314.062 L 494.815 323.816 C 501.118 325.939 505.365 331.778 505.365 338.48 Z " fill="rgb(189,213,234)"/><path d=" M 496.918 317.519 L 455.062 303.565 L 469.016 345.421 C 472.022 354.445 480.429 360.509 489.938 360.509 C 502.1 360.509 512 350.609 512 338.447 C 512 328.939 505.935 320.532 496.918 317.519 Z  M 489.938 347.239 C 486.149 347.239 482.798 344.824 481.604 341.227 L 476.043 324.553 L 492.718 330.113 C 496.314 331.314 498.729 334.658 498.729 338.447 C 498.729 343.297 494.788 347.239 489.938 347.239 Z " fill="rgb(73,88,103)"/></g></svg>