<?xml version="1.0" encoding="UTF-8" standalone="no"?><!-- Generator: Gravit.io --><svg xmlns="http://www.w3.org/2000/svg" xmlns:xlink="http://www.w3.org/1999/xlink" style="isolation:isolate" viewBox="0 0 512 512" width="512pt" height="512pt"><defs><clipPath id="_clipPath_bkcTUH0CEnpk5kPgaeUqJOL3SRT4mm9w"><rect width="512" height="512"/></clipPath></defs><g clip-path="url(#_clipPath_bkcTUH0CEnpk5kPgaeUqJOL3SRT4mm9w)"><g><g><g><g><g><path d=" M 108 7.502 C 89.555 7.502 74.602 22.455 74.602 40.9 L 74.602 471.101 C 74.602 489.546 89.555 504.499 108 504.499 L 404 504.499 C 422.445 504.499 437.398 489.546 437.398 471.101 L 437.398 110.487 C 437.398 103.777 434.732 97.341 429.988 92.597 L 352.304 14.913 C 347.559 10.168 341.124 7.503 334.414 7.503 L 108 7.503 L 108 7.502 Z " fill="rgb(247,247,255)"/><g><path d=" M 429.987 92.597 L 378.493 41.103 L 378.31 127.48 C 378.299 132.902 382.691 137.304 388.113 137.304 C 393.527 137.304 397.916 141.693 397.916 147.107 L 397.916 471.1 C 397.916 489.545 382.963 504.498 364.519 504.498 L 404 504.498 C 422.445 504.498 437.398 489.545 437.398 471.1 L 437.398 144.351 L 437.398 110.487 C 437.397 103.777 434.732 97.341 429.987 92.597 L 429.987 92.597 Z " fill="rgb(189,213,234)"/></g><path d=" M 429.987 92.597 L 352.303 14.913 C 350.14 12.75 347.624 11.025 344.893 9.782 L 344.893 66.61 C 344.893 85.055 359.846 100.008 378.29 100.008 L 435.119 100.008 C 433.875 97.276 432.15 94.76 429.987 92.597 L 429.987 92.597 Z " fill="rgb(189,213,234)"/></g></g><g><g><g><path d=" M 407.341 318.191 L 119.662 318.191 C 115.519 318.191 112.16 314.832 112.16 310.689 C 112.16 306.546 115.519 303.187 119.662 303.187 L 407.34 303.187 C 411.484 303.187 414.842 306.546 414.842 310.689 C 414.842 314.832 411.484 318.191 407.341 318.191 L 407.341 318.191 Z " fill="rgb(73,88,103)"/></g><g><path d=" M 407.341 369.573 L 119.662 369.573 C 115.519 369.573 112.16 366.214 112.16 362.071 C 112.16 357.928 115.519 354.569 119.662 354.569 L 407.34 354.569 C 411.484 354.569 414.842 357.928 414.842 362.071 C 414.842 366.214 411.484 369.573 407.341 369.573 L 407.341 369.573 Z " fill="rgb(73,88,103)"/></g><g><path d=" M 407.341 420.955 L 119.662 420.955 C 115.519 420.955 112.16 417.596 112.16 413.453 C 112.16 409.31 115.519 405.951 119.662 405.951 L 407.34 405.951 C 411.484 405.951 414.842 409.31 414.842 413.453 C 414.843 417.596 411.484 420.955 407.341 420.955 L 407.341 420.955 Z " fill="rgb(73,88,103)"/></g></g><g><g><path d=" M 407.341 266.809 L 287.008 266.809 C 282.864 266.809 279.506 263.45 279.506 259.307 C 279.506 255.164 282.864 251.805 287.008 251.805 L 407.341 251.805 C 411.485 251.805 414.843 255.164 414.843 259.307 C 414.843 263.451 411.484 266.809 407.341 266.809 Z " fill="rgb(73,88,103)"/></g></g><g><g><path d=" M 407.341 214.808 L 287.008 214.808 C 282.864 214.808 279.506 211.449 279.506 207.306 C 279.506 203.163 282.864 199.804 287.008 199.804 L 407.341 199.804 C 411.485 199.804 414.843 203.163 414.843 207.306 C 414.843 211.449 411.484 214.808 407.341 214.808 Z " fill="rgb(73,88,103)"/></g></g><g><path d=" M 229.653 257.92 L 129.005 257.92 C 123.845 257.92 119.662 253.737 119.662 248.577 L 119.662 128.571 C 119.662 123.411 123.845 119.228 129.005 119.228 L 229.652 119.228 C 234.812 119.228 238.995 123.411 238.995 128.571 L 238.995 248.578 C 238.996 253.737 234.813 257.92 229.653 257.92 L 229.653 257.92 Z " fill="rgb(87,115,153)"/><path d=" M 229.653 119.228 L 189.824 119.228 C 194.984 119.228 199.167 123.411 199.167 128.571 L 199.167 248.578 C 199.167 253.738 194.984 257.921 189.824 257.921 L 229.653 257.921 C 234.813 257.921 238.996 253.738 238.996 248.578 L 238.996 128.571 C 238.996 123.411 234.813 119.228 229.653 119.228 Z " fill="rgb(87,115,153)"/><path d=" M 238.996 248.577 L 238.996 242.471 C 229.299 219.065 206.242 202.595 179.329 202.595 C 152.416 202.595 129.359 219.065 119.662 242.471 L 119.662 248.577 C 119.662 253.737 123.845 257.92 129.005 257.92 L 229.652 257.92 C 234.813 257.92 238.996 253.737 238.996 248.577 L 238.996 248.577 Z " fill="rgb(247,247,255)"/><path d=" M 238.996 248.577 L 238.996 242.471 C 231.794 225.085 217.216 211.534 199.167 205.709 L 199.167 248.577 C 199.167 253.737 194.984 257.92 189.824 257.92 L 229.653 257.92 C 234.813 257.92 238.996 253.737 238.996 248.577 L 238.996 248.577 Z " fill="rgb(189,213,234)"/><circle vector-effect="non-scaling-stroke" cx="179.329" cy="178.656" r="23.938999999999993" fill="rgb(247,247,255)"/><path d=" M 199.167 192.059 C 201.756 188.235 203.269 183.622 203.269 178.656 C 203.269 173.69 201.756 169.077 199.167 165.253 L 199.167 192.059 Z " fill="rgb(0,114,152)"/></g></g></g></g><path d=" M 435.292 87.292 L 357.607 9.608 C 351.412 3.412 343.174 0 334.412 0 L 108 0 C 85.448 0 67.101 18.347 67.101 40.9 L 67.101 471.101 C 67.101 493.653 85.448 512 108 512 L 404 512 C 426.552 512 444.9 493.653 444.9 471.101 L 444.9 110.487 C 444.899 101.725 441.487 93.488 435.292 87.292 L 435.292 87.292 Z  M 419.287 92.506 L 378.29 92.506 C 364.011 92.506 352.394 80.889 352.394 66.61 L 352.394 25.613 L 419.287 92.506 Z  M 429.896 471.101 C 429.896 485.38 418.279 496.997 404 496.997 L 108 496.997 C 93.721 496.997 82.104 485.38 82.104 471.101 L 82.104 40.9 C 82.104 26.621 93.721 15.004 108 15.004 L 334.412 15.004 C 335.422 15.004 336.414 15.105 337.39 15.269 L 337.39 66.61 C 337.39 89.162 355.737 107.51 378.289 107.51 L 429.631 107.51 C 429.795 108.486 429.896 109.478 429.896 110.488 L 429.896 471.101 Z " fill="rgb(73,88,103)"/></g><g><g><path d=" M 239.575 157.101 C 235.432 157.101 232.073 153.742 232.073 149.599 L 232.073 128.571 C 232.073 127.556 231.247 126.73 230.232 126.73 L 129.584 126.73 C 128.569 126.73 127.743 127.556 127.743 128.571 L 127.743 149.47 C 127.743 153.613 124.384 156.972 120.241 156.972 C 116.098 156.972 112.739 153.613 112.739 149.47 L 112.739 128.571 C 112.739 119.283 120.296 111.726 129.584 111.726 L 230.231 111.726 C 239.519 111.726 247.076 119.283 247.076 128.571 L 247.076 149.599 C 247.076 153.742 243.718 157.101 239.575 157.101 Z " fill="rgb(73,88,103)"/></g><path d=" M 239.575 177.039 C 235.432 177.039 232.073 180.398 232.073 184.541 L 232.073 217.388 C 224.222 209.143 214.517 202.878 203.747 199.12 C 208.479 193.616 211.349 186.466 211.349 178.655 C 211.349 161.319 197.244 147.214 179.908 147.214 C 162.571 147.214 148.467 161.319 148.467 178.655 C 148.467 186.466 151.337 193.616 156.069 199.12 C 145.299 202.878 135.594 209.143 127.743 217.388 L 127.743 184.541 C 127.743 180.398 124.384 177.039 120.241 177.039 C 116.098 177.039 112.739 180.398 112.739 184.541 L 112.739 248.577 C 112.739 257.865 120.296 265.422 129.584 265.422 L 230.231 265.422 C 239.519 265.422 247.076 257.865 247.076 248.577 L 247.076 184.541 C 247.076 180.398 243.718 177.039 239.575 177.039 L 239.575 177.039 Z  M 163.47 178.655 C 163.47 169.592 170.844 162.218 179.908 162.218 C 188.971 162.218 196.345 169.592 196.345 178.655 C 196.345 187.719 188.971 195.093 179.908 195.093 C 170.844 195.093 163.47 187.719 163.47 178.655 Z  M 230.231 250.419 L 129.584 250.419 C 128.569 250.419 127.743 249.593 127.743 248.578 L 127.743 244.033 C 136.904 223.372 157.22 210.097 179.908 210.097 C 202.596 210.097 222.911 223.372 232.073 244.033 L 232.073 248.578 C 232.073 249.593 231.247 250.419 230.231 250.419 L 230.231 250.419 Z " fill="rgb(73,88,103)"/></g></g></svg>