<?xml version="1.0" encoding="UTF-8" standalone="no"?><!-- Generator: Gravit.io --><svg xmlns="http://www.w3.org/2000/svg" xmlns:xlink="http://www.w3.org/1999/xlink" style="isolation:isolate" viewBox="0 0 512 512" width="512pt" height="512pt"><defs><clipPath id="_clipPath_bXeZw3l6izITSR68JFcgvaKpPjBnyt8C"><rect width="512" height="512"/></clipPath></defs><g clip-path="url(#_clipPath_bXeZw3l6izITSR68JFcgvaKpPjBnyt8C)"><g><path d=" M 421.463 422.878 C 413.466 430.875 400.498 430.875 392.499 422.878 L 274.69 305.068 L 303.654 276.105 L 421.463 393.914 C 429.46 401.913 429.46 414.879 421.463 422.878 Z " fill="rgb(87,115,153)"/><path d=" M 406.984 435.692 C 399.99 435.692 392.998 433.027 387.674 427.704 L 269.865 309.895 C 267.199 307.229 267.199 302.908 269.865 300.242 L 298.829 271.278 C 301.495 268.612 305.816 268.612 308.482 271.278 L 426.291 389.088 C 436.937 399.734 436.937 417.058 426.291 427.704 C 420.966 433.027 413.972 435.692 406.984 435.692 L 406.984 435.692 Z  M 284.343 305.067 L 397.326 418.05 C 402.649 423.366 411.305 423.373 416.635 418.05 C 421.958 412.727 421.958 404.064 416.635 398.74 L 303.652 285.757 L 284.343 305.067 Z " fill="rgb(73,88,103)"/></g><g><circle vector-effect="non-scaling-stroke" cx="207.10912" cy="208.52394666666666" r="136.53333333333333" fill="rgb(189,213,234)"/><path d=" M 207.109 351.817 C 170.399 351.817 133.687 337.843 105.74 309.895 C 49.843 253.998 49.843 163.052 105.74 107.155 C 161.633 51.255 252.587 51.255 308.48 107.155 C 364.377 163.052 364.377 253.998 308.48 309.895 C 280.533 337.845 243.82 351.817 207.109 351.817 L 207.109 351.817 Z  M 207.109 78.877 C 173.896 78.877 140.679 91.52 115.393 116.808 C 64.819 167.381 64.819 249.668 115.393 300.24 C 165.967 350.812 248.253 350.814 298.825 300.24 C 349.397 249.667 349.399 167.38 298.825 116.808 C 273.539 91.52 240.323 78.877 207.109 78.877 L 207.109 78.877 Z " fill="rgb(73,88,103)"/></g><g><path d=" M 271.778 296.552 C 297.132 277.903 314.274 248.496 316.167 214.615 C 319.532 154.385 273.434 102.83 213.204 99.466 C 152.974 96.101 101.419 142.199 98.055 202.429 C 94.689 262.659 140.788 314.214 201.018 317.578 C 216.388 318.437 231.194 316.075 244.777 311.078" fill="rgb(247,247,255)"/><path d=" M 207.259 324.581 C 205.056 324.581 202.849 324.521 200.636 324.398 C 169.682 322.668 141.259 308.989 120.596 285.882 C 99.934 262.772 89.506 233.003 91.237 202.052 C 92.967 171.102 106.643 142.676 129.753 122.013 C 152.863 101.347 182.687 90.902 213.583 92.653 C 277.473 96.224 326.548 151.107 322.983 215.001 C 321.043 249.708 303.853 281.438 275.82 302.058 C 272.787 304.3 268.51 303.642 266.276 300.6 C 264.042 297.564 264.692 293.291 267.733 291.057 C 292.47 272.864 307.64 244.864 309.35 214.24 C 310.878 186.929 301.674 160.659 283.443 140.269 C 265.213 119.88 240.13 107.808 212.823 106.286 C 185.556 104.747 159.246 113.956 138.853 132.193 C 118.463 150.424 106.392 175.503 104.87 202.813 C 103.342 230.124 112.543 256.394 130.777 276.78 C 149.007 297.17 174.087 309.241 201.397 310.767 C 215.497 311.567 229.297 309.504 242.42 304.678 C 245.967 303.38 249.883 305.191 251.184 308.727 C 252.488 312.267 250.673 316.191 247.134 317.491 C 234.313 322.205 220.93 324.581 207.259 324.581 L 207.259 324.581 Z " fill="rgb(73,88,103)"/></g><path d=" M 247.383 426.291 C 243.613 426.291 240.556 423.235 240.556 419.465 L 240.556 364.851 C 240.556 361.081 243.613 358.025 247.383 358.025 C 251.153 358.025 254.21 361.081 254.21 364.851 L 254.21 419.465 C 254.21 423.235 251.153 426.291 247.383 426.291 Z " fill="rgb(73,88,103)"/><path d=" M 192.77 412.638 C 189 412.638 185.943 409.581 185.943 405.811 L 185.943 364.851 C 185.943 361.081 189 358.025 192.77 358.025 C 196.54 358.025 199.596 361.081 199.596 364.851 L 199.596 405.811 C 199.596 409.581 196.54 412.638 192.77 412.638 Z " fill="rgb(73,88,103)"/><path d=" M 192.77 446.771 C 189 446.771 185.943 443.715 185.943 439.945 L 185.943 426.291 C 185.943 422.521 189 419.465 192.77 419.465 C 196.54 419.465 199.596 422.521 199.596 426.291 L 199.596 439.945 C 199.596 443.715 196.54 446.771 192.77 446.771 Z " fill="rgb(73,88,103)"/><g><path d=" M 206.423 201.011 L 138.156 228.045 L 143.845 276.105 L 155.223 261.086 L 206.423 243.063 L 257.623 261.086 L 269.001 276.105 L 274.69 228.045 L 206.423 201.011 Z " fill="rgb(157,193,228)"/><path d=" M 269 282.931 C 266.897 282.931 264.87 281.958 263.557 280.228 L 253.421 266.841 L 206.425 250.301 L 159.428 266.841 L 149.292 280.228 C 147.61 282.448 144.746 283.431 142.06 282.691 C 139.373 281.96 137.397 279.673 137.069 276.907 L 131.379 228.847 C 131.016 225.77 132.765 222.838 135.646 221.698 L 203.913 194.664 C 205.525 194.024 207.326 194.024 208.939 194.664 L 277.205 221.698 C 280.086 222.838 281.836 225.772 281.472 228.847 L 275.782 276.907 C 275.456 279.673 273.478 281.96 270.792 282.691 C 270.196 282.854 269.597 282.931 269 282.931 L 269 282.931 Z  M 206.423 236.237 C 207.189 236.237 207.956 236.367 208.689 236.624 L 259.889 254.645 C 261.152 255.089 262.257 255.894 263.066 256.961 L 264.212 258.478 L 267.293 232.458 L 206.423 208.355 L 145.553 232.458 L 148.634 258.478 L 149.78 256.961 C 150.591 255.894 151.694 255.087 152.957 254.645 L 204.157 236.624 C 204.889 236.368 205.657 236.237 206.423 236.237 L 206.423 236.237 Z " fill="rgb(73,88,103)"/></g><g><path d=" M 240.063 276.105 C 244.762 261.393 247.383 245.374 247.383 228.581 C 247.383 186.691 231.31 149.482 206.423 125.918 C 181.536 149.482 165.463 186.691 165.463 228.581 C 165.463 245.374 168.084 261.393 172.783 276.105 L 240.063 276.105 Z " fill="rgb(189,213,234)"/><path d=" M 240.063 282.931 L 172.783 282.931 C 169.813 282.931 167.183 281.011 166.279 278.182 C 161.208 262.304 158.635 245.615 158.635 228.582 C 158.635 186.119 174.341 146.893 201.728 120.962 C 204.361 118.468 208.481 118.468 211.115 120.962 C 238.502 146.891 254.208 186.119 254.208 228.582 C 254.208 245.615 251.634 262.306 246.564 278.182 C 245.663 281.011 243.033 282.931 240.063 282.931 L 240.063 282.931 Z  M 177.857 269.278 L 234.991 269.278 C 238.688 256.177 240.558 242.511 240.558 228.581 C 240.558 192.377 228.192 158.897 206.425 135.601 C 184.658 158.897 172.291 192.379 172.291 228.581 C 172.29 242.511 174.16 256.177 177.857 269.278 L 177.857 269.278 Z " fill="rgb(73,88,103)"/></g><g><circle vector-effect="non-scaling-stroke" cx="206.42304000000001" cy="201.0112" r="20.47999999999999" fill="rgb(247,247,255)"/><path d=" M 206.423 228.318 C 191.367 228.318 179.116 216.067 179.116 201.011 C 179.116 185.955 191.367 173.705 206.423 173.705 C 221.479 173.705 233.73 185.955 233.73 201.011 C 233.73 216.067 221.479 228.318 206.423 228.318 Z  M 206.423 187.358 C 198.893 187.358 192.77 193.481 192.77 201.011 C 192.77 208.541 198.893 214.665 206.423 214.665 C 213.953 214.665 220.076 208.541 220.076 201.011 C 220.076 193.481 213.953 187.358 206.423 187.358 Z " fill="rgb(73,88,103)"/></g><g><path d=" M 267.863 358.025 L 267.863 334.131 C 267.863 328.475 263.279 323.891 257.623 323.891 C 251.967 323.891 247.383 319.307 247.383 313.651 C 247.383 307.995 242.799 303.411 237.143 303.411 L 230.316 303.411 C 224.66 303.411 220.076 298.827 220.076 293.171 L 220.076 276.105 L 192.77 276.105 L 192.77 293.171 C 192.77 298.827 188.186 303.411 182.53 303.411 L 175.703 303.411 C 170.047 303.411 165.463 307.995 165.463 313.651 C 165.463 319.307 160.879 323.891 155.223 323.891 C 149.567 323.891 144.983 328.475 144.983 334.131 L 144.983 358.025" fill="rgb(87,115,153)"/><path d=" M 267.863 364.851 C 264.093 364.851 261.036 361.795 261.036 358.025 L 261.036 334.131 C 261.036 332.247 259.507 330.718 257.623 330.718 C 248.212 330.718 240.556 323.062 240.556 313.651 C 240.556 311.767 239.027 310.238 237.143 310.238 L 230.316 310.238 C 220.906 310.238 213.25 302.582 213.25 293.171 L 213.25 282.931 L 199.596 282.931 L 199.596 293.171 C 199.596 302.582 191.94 310.238 182.53 310.238 L 175.703 310.238 C 173.819 310.238 172.29 311.767 172.29 313.651 C 172.29 323.062 164.634 330.718 155.223 330.718 C 153.339 330.718 151.81 332.247 151.81 334.131 L 151.81 358.025 C 151.81 361.795 148.753 364.851 144.983 364.851 C 141.213 364.851 138.156 361.795 138.156 358.025 L 138.156 334.131 C 138.156 324.721 145.812 317.065 155.223 317.065 C 157.107 317.065 158.636 315.535 158.636 313.651 C 158.636 304.241 166.292 296.585 175.703 296.585 L 182.53 296.585 C 184.414 296.585 185.943 295.055 185.943 293.171 L 185.943 276.105 C 185.943 272.335 189 269.278 192.77 269.278 L 220.076 269.278 C 223.846 269.278 226.903 272.335 226.903 276.105 L 226.903 293.171 C 226.903 295.055 228.432 296.585 230.316 296.585 L 237.143 296.585 C 246.554 296.585 254.21 304.241 254.21 313.651 C 254.21 315.535 255.739 317.065 257.623 317.065 C 267.034 317.065 274.69 324.721 274.69 334.131 L 274.69 358.025 C 274.69 361.795 271.633 364.851 267.863 364.851 Z " fill="rgb(73,88,103)"/></g><path d=" M 206.423 282.931 C 202.653 282.931 199.596 279.875 199.596 276.105 L 199.596 248.798 C 199.596 245.028 202.653 241.971 206.423 241.971 C 210.193 241.971 213.25 245.028 213.25 248.798 L 213.25 276.105 C 213.25 279.875 210.193 282.931 206.423 282.931 Z " fill="rgb(73,88,103)"/><path d=" M 165.463 371.678 C 161.693 371.678 158.636 368.621 158.636 364.851 L 158.636 344.371 C 158.636 340.601 161.693 337.545 165.463 337.545 C 169.233 337.545 172.29 340.601 172.29 344.371 L 172.29 364.851 C 172.29 368.621 169.233 371.678 165.463 371.678 Z " fill="rgb(73,88,103)"/><path d=" M 220.076 392.158 C 216.306 392.158 213.25 389.101 213.25 385.331 L 213.25 351.198 C 213.25 347.428 216.306 344.371 220.076 344.371 C 223.846 344.371 226.903 347.428 226.903 351.198 L 226.903 385.331 C 226.903 389.101 223.846 392.158 220.076 392.158 Z " fill="rgb(73,88,103)"/></g></svg>