<?xml version="1.0" encoding="UTF-8" standalone="no"?><!-- Generator: Gravit.io --><svg xmlns="http://www.w3.org/2000/svg" xmlns:xlink="http://www.w3.org/1999/xlink" style="isolation:isolate" viewBox="0 0 512 512" width="512pt" height="512pt"><defs><clipPath id="_clipPath_ldrnUQckbVvehhgQsOTM29WhGslBj7B3"><rect width="512" height="512"/></clipPath></defs><g clip-path="url(#_clipPath_ldrnUQckbVvehhgQsOTM29WhGslBj7B3)"><circle vector-effect="non-scaling-stroke" cx="256.001477937738" cy="256.043845486228" r="78.82334602794612" fill="rgb(73,88,103)"/><path d=" M 504.147 234.21 C 443.558 160.993 351.842 90.515 256.001 90.515 C 160.142 90.515 68.405 161.042 7.856 234.21 C -2.618 246.861 -2.618 265.227 7.856 277.878 C 23.078 296.273 54.992 331.783 97.616 362.81 C 204.962 440.956 306.804 441.128 414.387 362.81 C 457.011 331.783 488.924 296.273 504.147 277.878 C 514.59 265.251 514.645 246.902 504.147 234.21 L 504.147 234.21 Z  M 256.001 145.691 C 316.853 145.691 366.354 195.192 366.354 256.044 C 366.354 316.895 316.853 366.397 256.001 366.397 C 195.15 366.397 145.649 316.895 145.649 256.044 C 145.649 195.192 195.15 145.691 256.001 145.691 Z " fill="rgb(73,88,103)"/></g></svg>