<svg id="Layer_1" enable-background="new 0 0 519.643 519.643" height="512" viewBox="0 0 519.643 519.643" width="512" xmlns="http://www.w3.org/2000/svg"><circle cx="259.823" cy="259.866" r="80"/><path d="m511.673 237.706c-61.494-74.31-154.579-145.84-251.85-145.84-97.29 0-190.397 71.58-251.85 145.84-10.63 12.84-10.63 31.48 0 44.32 15.45 18.67 47.84 54.71 91.1 86.2 108.949 79.312 212.311 79.487 321.5 0 43.26-31.49 75.65-67.53 91.1-86.2 10.599-12.815 10.654-31.438 0-44.32zm-251.85-89.84c61.76 0 112 50.24 112 112s-50.24 112-112 112-112-50.24-112-112 50.24-112 112-112z"/></svg>