<?xml version="1.0" encoding="UTF-8" standalone="no"?><!-- Generator: Gravit.io --><svg xmlns="http://www.w3.org/2000/svg" xmlns:xlink="http://www.w3.org/1999/xlink" style="isolation:isolate" viewBox="0 0 512 512" width="512pt" height="512pt"><defs><clipPath id="_clipPath_7ZkxMcfJI1HWZ7NvzmoZU5vCxHF9deHc"><rect width="512" height="512"/></clipPath></defs><g clip-path="url(#_clipPath_7ZkxMcfJI1HWZ7NvzmoZU5vCxHF9deHc)"><circle vector-effect="non-scaling-stroke" cx="319.528" cy="255.99999999999997" r="184.97199999999998" fill="rgb(189,213,234)"/><path d=" M 319.528 71.029 C 314.846 71.029 310.206 71.207 305.611 71.549 C 401.267 78.664 490 158.525 490 256 C 490 353.475 401.267 433.336 305.611 440.452 C 310.206 440.794 314.846 440.972 319.528 440.972 C 421.685 440.971 504.5 358.157 504.5 256 C 504.5 153.843 421.685 71.029 319.528 71.029 L 319.528 71.029 Z " fill="rgb(87,115,153)"/><circle vector-effect="non-scaling-stroke" cx="319.528" cy="256" r="142.03300000000002" fill="rgb(247,247,255)"/><path d=" M 319.528 113.967 C 315.207 113.967 310.934 114.171 306.711 114.549 C 379.146 121.029 435.926 181.879 435.926 256 C 435.926 330.121 379.146 390.97 306.711 397.451 C 310.934 397.828 315.207 398.033 319.528 398.033 C 397.971 398.033 461.561 334.443 461.561 256.001 C 461.561 177.557 397.971 113.967 319.528 113.967 L 319.528 113.967 Z " fill="rgb(247,247,255)"/><g><path d=" M 38.872 149.21 L 117.97 149.21 C 122.112 149.21 125.47 145.853 125.47 141.71 C 125.47 137.567 122.112 134.21 117.97 134.21 L 38.872 134.21 C 34.73 134.21 31.372 137.567 31.372 141.71 C 31.372 145.853 34.729 149.21 38.872 149.21 Z " fill="rgb(73,88,103)"/><path d=" M 115.258 185.317 L 84.012 185.317 C 79.87 185.317 76.512 188.674 76.512 192.817 C 76.512 196.96 79.87 200.317 84.012 200.317 L 115.258 200.317 C 119.4 200.317 122.758 196.96 122.758 192.817 C 122.758 188.674 119.4 185.317 115.258 185.317 Z " fill="rgb(73,88,103)"/><path d=" M 7.5 237.327 L 84.012 237.327 C 88.154 237.327 91.512 233.97 91.512 229.827 C 91.512 225.684 88.154 222.327 84.012 222.327 L 7.5 222.327 C 3.358 222.327 0 225.684 0 229.827 C 0 233.97 3.358 237.327 7.5 237.327 Z " fill="rgb(73,88,103)"/><path d=" M 125.47 370.289 C 125.47 366.146 122.112 362.789 117.97 362.789 L 38.872 362.789 C 34.73 362.789 31.372 366.146 31.372 370.289 C 31.372 374.432 34.73 377.789 38.872 377.789 L 117.97 377.789 C 122.112 377.789 125.47 374.432 125.47 370.289 Z " fill="rgb(73,88,103)"/><path d=" M 115.258 311.683 L 84.012 311.683 C 79.87 311.683 76.512 315.04 76.512 319.183 C 76.512 323.326 79.87 326.683 84.012 326.683 L 115.258 326.683 C 119.4 326.683 122.758 323.326 122.758 319.183 C 122.758 315.04 119.4 311.683 115.258 311.683 Z " fill="rgb(73,88,103)"/><path d=" M 91.512 282.173 C 91.512 278.03 88.154 274.673 84.012 274.673 L 7.5 274.673 C 3.358 274.673 0 278.03 0 282.173 C 0 286.316 3.358 289.673 7.5 289.673 L 84.012 289.673 C 88.154 289.673 91.512 286.316 91.512 282.173 Z " fill="rgb(73,88,103)"/><path d=" M 319.529 165.83 C 323.672 165.83 327.029 162.473 327.029 158.33 L 327.029 146.882 C 327.029 142.739 323.672 139.382 319.529 139.382 C 315.386 139.382 312.029 142.739 312.029 146.882 L 312.029 158.33 C 312.029 162.473 315.386 165.83 319.529 165.83 Z " fill="rgb(73,88,103)"/><path d=" M 401.99 173.538 C 399.06 170.61 394.312 170.61 391.383 173.538 L 383.288 181.633 C 380.359 184.563 380.359 189.311 383.288 192.24 C 386.219 195.169 390.966 195.168 393.895 192.24 L 401.99 184.145 C 404.918 181.216 404.918 176.468 401.99 173.538 Z " fill="rgb(73,88,103)"/><path d=" M 417.199 248.5 C 413.056 248.5 409.699 251.857 409.699 256 C 409.699 260.143 413.056 263.5 417.199 263.5 L 428.646 263.5 C 432.789 263.5 436.146 260.143 436.146 256 C 436.146 251.857 432.789 248.5 428.646 248.5 L 417.199 248.5 Z " fill="rgb(73,88,103)"/><path d=" M 393.895 319.759 C 390.965 316.831 386.217 316.831 383.288 319.759 C 380.359 322.689 380.359 327.437 383.288 330.366 L 391.383 338.461 C 394.314 341.39 399.061 341.389 401.99 338.461 C 404.919 335.531 404.919 330.783 401.99 327.854 L 393.895 319.759 Z " fill="rgb(73,88,103)"/><path d=" M 312.029 353.67 L 312.029 365.117 C 312.029 369.26 315.386 372.617 319.529 372.617 C 323.672 372.617 327.029 369.26 327.029 365.117 L 327.029 353.67 C 327.029 349.527 323.672 346.17 319.529 346.17 C 315.386 346.17 312.029 349.528 312.029 353.67 Z " fill="rgb(73,88,103)"/><path d=" M 245.162 319.759 L 237.067 327.854 C 234.138 330.784 234.138 335.532 237.067 338.461 C 239.997 341.39 244.745 341.389 247.673 338.461 L 255.768 330.366 C 258.697 327.436 258.697 322.688 255.768 319.759 C 252.84 316.831 248.091 316.831 245.162 319.759 Z " fill="rgb(73,88,103)"/><path d=" M 210.411 248.5 C 206.269 248.5 202.911 251.857 202.911 256 C 202.911 260.143 206.269 263.5 210.411 263.5 L 221.859 263.5 C 226.001 263.5 229.359 260.143 229.359 256 C 229.359 251.857 226.001 248.5 221.859 248.5 L 210.411 248.5 Z " fill="rgb(73,88,103)"/><path d=" M 255.769 181.633 L 247.674 173.538 C 244.745 170.61 239.996 170.61 237.068 173.538 C 234.139 176.468 234.139 181.216 237.068 184.145 L 245.163 192.24 C 248.093 195.169 252.841 195.168 255.769 192.24 C 258.698 189.311 258.698 184.563 255.769 181.633 Z " fill="rgb(73,88,103)"/><path d=" M 359.859 256 C 359.859 251.857 356.502 248.5 352.359 248.5 L 327.029 248.5 L 327.029 192.816 C 327.029 188.673 323.672 185.316 319.529 185.316 C 315.386 185.316 312.029 188.673 312.029 192.816 L 312.029 256 C 312.029 260.143 315.386 263.5 319.529 263.5 L 352.359 263.5 C 356.501 263.5 359.859 260.143 359.859 256 Z " fill="rgb(73,88,103)"/><path d=" M 461.741 254.762 C 465.876 254.511 469.024 250.956 468.773 246.822 C 464.002 168.119 398.446 106.468 319.528 106.468 C 237.076 106.468 169.996 173.548 169.996 256.001 C 169.996 338.453 237.076 405.533 319.528 405.533 C 393.397 405.533 456.428 351.411 467.393 278.376 C 468.008 274.28 465.186 270.461 461.089 269.846 C 457.003 269.233 453.174 272.052 452.559 276.15 C 442.709 341.764 386.053 390.534 319.528 390.534 C 245.347 390.534 184.996 330.183 184.996 256.002 C 184.996 181.821 245.347 121.469 319.528 121.469 C 390.529 121.469 449.508 176.93 453.8 247.732 C 454.05 251.864 457.602 255.002 461.741 254.762 L 461.741 254.762 Z " fill="rgb(73,88,103)"/><path d=" M 319.528 63.529 C 293.147 63.529 267.3 69.002 243.51 79.237 L 111.181 79.237 C 107.039 79.237 103.681 82.594 103.681 86.737 C 103.681 90.88 107.039 94.237 111.181 94.237 L 215.294 94.237 C 201.217 103.297 188.258 114.225 176.832 126.841 C 174.052 129.91 174.286 134.653 177.356 137.434 C 180.427 140.215 185.168 139.98 187.95 136.91 C 221.552 99.808 269.511 78.529 319.528 78.529 C 417.386 78.529 497 158.142 497 256 C 497 353.857 417.387 433.471 319.528 433.471 C 221.67 433.471 142.057 353.858 142.057 256 C 142.057 221.732 151.846 188.472 170.364 159.814 C 172.612 156.335 171.614 151.693 168.135 149.445 C 164.656 147.198 160.014 148.194 157.765 151.674 C 137.675 182.762 127.057 218.837 127.057 256 C 127.057 323.766 162.263 383.458 215.342 417.763 L 111.182 417.763 C 107.04 417.763 103.682 421.12 103.682 425.263 C 103.682 429.406 107.04 432.763 111.182 432.763 L 243.407 432.763 C 266.767 442.862 292.504 448.471 319.529 448.471 C 425.657 448.471 512 362.129 512 256 C 512 149.871 425.657 63.529 319.528 63.529 L 319.528 63.529 Z " fill="rgb(73,88,103)"/></g></g></svg>