<?xml version="1.0" encoding="UTF-8" standalone="no"?>
<!-- Generator: Gravit.io -->
<svg xmlns="http://www.w3.org/2000/svg" xmlns:xlink="http://www.w3.org/1999/xlink" style="isolation:isolate" viewBox="0 0 512 512" width="512pt" height="512pt"><defs><clipPath id="_clipPath_BlSCbF4i3uvwZUBcSwqqFLz9rvevhlqF"><rect width="512" height="512"/></clipPath></defs><g clip-path="url(#_clipPath_BlSCbF4i3uvwZUBcSwqqFLz9rvevhlqF)"><path d=" M 183.875 460.8 C 198.441 460.8 202.414 455.055 202.414 447.98 C 202.414 441.646 202.189 424.873 202.076 402.647 C 126.602 418.724 110.684 366.879 110.684 366.879 C 98.34 336.108 80.497 327.875 80.497 327.875 C 55.921 311.347 82.396 311.685 82.396 311.685 C 109.645 313.539 123.955 339.159 123.955 339.159 C 148.147 379.924 187.469 368.148 202.982 361.339 C 205.425 344.084 212.413 332.349 220.165 325.683 C 159.908 319.012 96.573 296.084 96.573 193.93 C 96.573 164.828 107.09 141.046 124.498 122.388 C 121.446 115.651 112.287 88.54 126.874 51.82 C 126.874 51.82 149.596 44.672 201.487 79.155 C 223.196 73.231 246.257 70.292 269.322 70.154 C 292.388 70.287 315.448 73.231 337.157 79.155 C 388.71 44.672 411.433 51.82 411.433 51.82 C 426.015 88.54 416.86 115.651 414.147 122.388 C 431.442 141.041 441.958 164.828 441.958 193.93 C 441.958 296.356 378.537 318.899 318.162 325.458 C 327.66 333.46 336.476 349.809 336.476 374.794 C 336.476 410.476 336.138 439.148 336.138 447.805 C 336.138 454.794 339.159 460.467 354.79 460.467 L 183.875 460.8 Z " fill="rgb(73,88,103)"/>
</g>
</svg>