<?xml version="1.0" encoding="UTF-8" standalone="no"?><!-- Generator: Gravit.io --><svg xmlns="http://www.w3.org/2000/svg" xmlns:xlink="http://www.w3.org/1999/xlink" style="isolation:isolate" viewBox="0 0 512 512" width="512pt" height="512pt"><defs><clipPath id="_clipPath_mPZ0kVC78P4UYEPOFYPGQJH0WOLiuJbG"><rect width="512" height="512"/></clipPath></defs><g clip-path="url(#_clipPath_mPZ0kVC78P4UYEPOFYPGQJH0WOLiuJbG)"><path d=" M 475.074 0 L 36.926 0 C 16.531 0 0 16.531 0 36.926 L 0 475.074 C 0 495.469 16.531 512 36.926 512 L 475.074 512 C 495.469 512 512 495.469 512 475.074 L 512 36.926 C 512 16.531 495.469 0 475.074 0 L 475.074 0 Z  M 181.609 387 L 119.262 387 L 119.262 199.426 L 181.609 199.426 L 181.609 387 Z  M 150.438 173.813 L 150.031 173.813 C 129.109 173.813 115.578 159.41 115.578 141.41 C 115.578 123.004 129.523 109 150.852 109 C 172.18 109 185.305 123.004 185.711 141.41 C 185.711 159.41 172.18 173.813 150.438 173.813 Z  M 406.422 387 L 344.082 387 L 344.082 286.652 C 344.082 261.434 335.055 244.234 312.496 244.234 C 295.273 244.234 285.016 255.836 280.508 267.035 C 278.859 271.043 278.457 276.645 278.457 282.25 L 278.457 387 L 216.113 387 C 216.113 387 216.93 217.023 216.113 199.426 L 278.457 199.426 L 278.457 225.984 C 286.742 213.203 301.566 195.023 334.645 195.023 C 375.664 195.023 406.422 221.832 406.422 279.445 L 406.422 387 Z " fill="rgb(73,88,103)"/></g></svg>